<svg width="21" height="15" fill="none" xmlns="http://www.w3.org/2000/svg"><path d="M2 0h17a2 2 0 0 1 2 2v11a2 2 0 0 1-2 2H2a2 2 0 0 1-2-2V2a2 2 0 0 1 2-2z" fill="#43458B"/><path d="M0 5.664l3.498-2.4.001-.001H3.5l.001.001 5.425 3.722H7.159L3.5 4.476 0 6.877V5.664zM9 .095v1.213l-3.499 2.4-.001.001-.001-.001L.741.444C1.06.184 1.451.028 1.862 0L5.5 2.496 9 .095z" fill="#F6F9FC"/><path d="M8.909 7L5.25 4.49 1.591 7H0v-.121l5.249-3.601v-.001h.002v.001L9 5.85V7h-.091zM3.751 3.722v.001h-.002v-.001L.148 1.252A1.99 1.99 0 0 1 .749.451L3.75 2.51 7.409 0H9v.121L3.751 3.722z" fill="#E25950"/><path d="M9 4.625H5.625V7h-2.25V4.625H0v-2.25h3.375V0h2.25v2.375H9v2.25z" fill="#F6F9FC"/><path d="M9 3.998H5V7H4V3.998H0v-.996h4V0h1v3.002h4v.996z" fill="#E25950"/><path d="M16.22 6.44a1.22 1.22 0 1 1-.07-2.439 1.22 1.22 0 0 1 .071 2.439h-.001zm-2-2A1.22 1.22 0 1 1 14.152 2a1.22 1.22 0 0 1 .068 2.44zm-.78 1.781a1.22 1.22 0 1 1-2.438.068 1.22 1.22 0 0 1 2.438-.068zm.78 3.781a1.22 1.22 0 1 1 .07 2.438 1.22 1.22 0 0 1-.07-2.438z" fill="#F6F9FC"/><path d="M16.188 5.874a.687.687 0 1 1-.002-1.374.687.687 0 0 1 .002 1.374zm-2 6.001a.688.688 0 1 1 .486-.201.688.688 0 0 1-.487.201h.001zm0-8.001a.687.687 0 1 1-.004-1.374.687.687 0 0 1 .004 1.374zm-2 3a.688.688 0 1 1 .051-1.375.688.688 0 0 1-.051 1.375z" fill="#E25950"/></svg>