<svg width="21" height="15" viewBox="0 0 21 15" fill="none" xmlns="http://www.w3.org/2000/svg">
<path d="M2.005 -1.33047e-06C1.47509 -0.00133036 0.966303 0.2077 0.590378 0.581187C0.214453 0.954674 0.002118 1.46209 0 1.992V13.008C0.000523463 13.2705 0.052836 13.5304 0.153942 13.7727C0.255048 14.015 0.402963 14.2349 0.589211 14.42C0.775458 14.605 0.996378 14.7515 1.23932 14.851C1.48227 14.9506 1.74246 15.0012 2.005 15H5V-1.33047e-06H2.005Z" fill="#E25950"/>
<path d="M5 0V5H21V2.005C21.0013 1.47474 20.792 0.965655 20.4181 0.589673C20.0442 0.213691 19.5363 0.00158912 19.006 0H5Z" fill="#24B47E"/>
<path d="M5 5H21V10H5V5Z" fill="#F6F9FC"/>
<path d="M5 10V15H19.006C19.2687 14.9996 19.5287 14.9474 19.7711 14.8464C20.0136 14.7453 20.2338 14.5975 20.419 14.4112C20.6042 14.225 20.7509 14.004 20.8506 13.761C20.9503 13.518 21.0011 13.2577 21 12.995V10H5Z" fill="#333333"/>
<path d="M19.999 5H21V10H19.999V5Z" fill="#EAEEF3"/>
</svg>
