<svg width="21" height="15" viewBox="0 0 21 15" fill="none" xmlns="http://www.w3.org/2000/svg">
<path d="M1.995 0C1.73224 0.000261042 1.47212 0.0523726 1.22954 0.153349C0.98696 0.254325 0.766692 0.402181 0.581361 0.588442C0.396029 0.774702 0.249284 0.995706 0.149522 1.23879C0.0497595 1.48187 -0.00105196 1.74225 7.70428e-07 2.005V5H21V2.005C20.9997 1.47505 20.7898 0.966732 20.416 0.591064C20.0422 0.215397 19.5349 0.00290595 19.005 0H1.995Z" fill="#E25950"/>
<path d="M0 5H21V10H0V5Z" fill="#F6F9FC"/>
<path d="M0 5H1.00101V10H0V5ZM19.999 5H21V10H19.999V5Z" fill="#EAEEF3"/>
<path d="M0 10V12.995C0.000256215 13.525 0.210206 14.0333 0.584 14.4089C0.957793 14.7846 1.46505 14.9971 1.995 15H19.005C19.2678 14.9997 19.5279 14.9476 19.7705 14.8467C20.013 14.7457 20.2333 14.5978 20.4186 14.4116C20.604 14.2253 20.7507 14.0043 20.8505 13.7612C20.9502 13.5181 21.0011 13.2578 21 12.995V10H0Z" fill="#E25950"/>
</svg>
