<svg width="21" height="15" fill="none" xmlns="http://www.w3.org/2000/svg"><path d="M8.499 8.5v-8h10.492A1.505 1.505 0 0 1 20.5 1.998V8.5H8.499z" fill="#F7F7F7"/><path d="M18.991 1A1.004 1.004 0 0 1 20 1.997V8H9V1h9.992-.001zm.001-1H7.999v9H21V1.997A2.005 2.005 0 0 0 18.991 0h.001z" fill="#E9EBF0"/><path d="M0 8v4.994A2.006 2.006 0 0 0 1.995 15h17.01A1.991 1.991 0 0 0 21 12.994V8H0z" fill="#E25950"/><path d="M1.997 0A1.993 1.993 0 0 0 0 1.998V8h9V0H1.997z" fill="#43458B"/><path d="M6.34 3.422l-1.169.002a.162.162 0 0 1-.154-.112L4.655 2.2a.162.162 0 0 0-.31 0l-.36 1.111a.162.162 0 0 1-.155.113H2.66a.162.162 0 0 0-.095.294l.946.687a.162.162 0 0 1 .058.182L3.21 5.7a.162.162 0 0 0 .25.182l.946-.634a.162.162 0 0 1 .191 0l.946.634a.162.162 0 0 0 .25-.182l-.361-1.111a.162.162 0 0 1 .059-.183l.946-.687a.162.162 0 0 0 0-.264.165.165 0 0 0-.096-.032l-.001-.001z" fill="#fff"/></svg>