<svg width="21" height="15" viewBox="0 0 21 15" fill="none" xmlns="http://www.w3.org/2000/svg">
<path d="M2 0H19C19.5304 0 20.0391 0.210712 20.4142 0.585785C20.7893 0.960858 21 1.46957 21 2V13C21 13.5304 20.7893 14.0391 20.4142 14.4142C20.0391 14.7893 19.5304 15 19 15H2C1.46957 15 0.960858 14.7893 0.585785 14.4142C0.210712 14.0391 0 13.5304 0 13V2C0 1.46957 0.210712 0.960858 0.585785 0.585785C0.960858 0.210712 1.46957 0 2 0Z" fill="#43458B"/>
<path d="M14.906 8.219C14.7391 8.219 14.5759 8.1695 14.4371 8.07676C14.2983 7.98402 14.1901 7.85221 14.1262 7.69799C14.0624 7.54377 14.0456 7.37406 14.0782 7.21034C14.1108 7.04662 14.1912 6.89624 14.3092 6.7782C14.4272 6.66017 14.5776 6.57979 14.7413 6.54722C14.905 6.51465 15.0747 6.53137 15.229 6.59525C15.3832 6.65913 15.515 6.7673 15.6078 6.9061C15.7005 7.04489 15.75 7.20807 15.75 7.375C15.7501 7.48587 15.7284 7.59568 15.686 7.69814C15.6437 7.8006 15.5815 7.89369 15.5031 7.97209C15.4247 8.05049 15.3316 8.11265 15.2291 8.15502C15.1267 8.19739 15.0169 8.21913 14.906 8.219ZM13.011 4.775C12.8898 4.65789 12.8062 4.50734 12.7708 4.34253C12.7354 4.17773 12.7499 4.00614 12.8124 3.8496C12.8749 3.69306 12.9826 3.55867 13.1218 3.46355C13.2609 3.36842 13.4252 3.31687 13.5938 3.31545C13.7623 3.31404 13.9275 3.36282 14.0682 3.45559C14.2089 3.54837 14.3188 3.68093 14.384 3.83639C14.4491 3.99186 14.4665 4.16319 14.4339 4.32856C14.4013 4.49393 14.3202 4.64586 14.201 4.765C14.0435 4.92232 13.8306 5.01152 13.608 5.01339C13.3855 5.01526 13.1711 4.92966 13.011 4.775ZM14.176 9.975C14.3009 10.0898 14.3887 10.2393 14.428 10.4043C14.4672 10.5694 14.4562 10.7424 14.3963 10.9011C14.3364 11.0599 14.2304 11.197 14.0919 11.295C13.9534 11.393 13.7887 11.4472 13.6191 11.4508C13.4495 11.4545 13.2827 11.4072 13.1401 11.3152C12.9976 11.2232 12.8858 11.0907 12.8192 10.9346C12.7527 10.7786 12.7343 10.6062 12.7665 10.4396C12.7987 10.2731 12.88 10.12 13 10C13.155 9.84502 13.3638 9.75589 13.583 9.75123C13.8021 9.74658 14.0146 9.82674 14.176 9.975ZM10.375 12.75C10.2081 12.75 10.0449 12.7005 9.90609 12.6078C9.7673 12.515 9.65912 12.3832 9.59524 12.229C9.53136 12.0748 9.51464 11.9051 9.54721 11.7413C9.57977 11.5776 9.66016 11.4272 9.77819 11.3092C9.89623 11.1912 10.0466 11.1108 10.2104 11.0782C10.3741 11.0457 10.5438 11.0624 10.698 11.1262C10.8522 11.1901 10.984 11.2983 11.0767 11.4371C11.1695 11.5759 11.219 11.7391 11.219 11.906C11.219 12.1298 11.1301 12.3445 10.9718 12.5028C10.8135 12.6611 10.5988 12.75 10.375 12.75ZM10.375 3.687C10.208 3.6872 10.0447 3.63787 9.90582 3.54525C9.76689 3.45263 9.65857 3.32088 9.59454 3.16668C9.53051 3.01248 9.51363 2.84275 9.54608 2.67896C9.57853 2.51517 9.65886 2.36469 9.77685 2.24656C9.89485 2.12842 10.0452 2.04794 10.209 2.01529C10.3727 1.98264 10.5425 1.9993 10.6967 2.06315C10.851 2.127 10.9829 2.23518 11.0757 2.374C11.1685 2.51281 11.218 2.67603 11.218 2.843C11.2181 2.95379 11.1964 3.06352 11.1541 3.16591C11.1118 3.2683 11.0497 3.36135 10.9714 3.43974C10.8931 3.51813 10.8002 3.58031 10.6978 3.62274C10.5955 3.66516 10.4858 3.687 10.375 3.687ZM6.60998 11.176C6.48876 11.0589 6.40517 10.9083 6.36981 10.7435C6.33445 10.5787 6.34893 10.4071 6.41143 10.2506C6.47394 10.0941 6.58161 9.95967 6.72076 9.86455C6.85991 9.76942 7.02423 9.71787 7.19278 9.71645C7.36132 9.71504 7.52648 9.76382 7.6672 9.8566C7.80793 9.94937 7.91784 10.0819 7.98297 10.2374C8.04809 10.3929 8.06548 10.5642 8.03289 10.7296C8.00031 10.8949 7.91922 11.0469 7.79998 11.166C7.64253 11.3233 7.4296 11.4125 7.20703 11.4144C6.98446 11.4163 6.77005 11.3307 6.60998 11.176ZM6.574 4.775C6.42572 4.61358 6.34554 4.40111 6.35019 4.18196C6.35483 3.96282 6.44394 3.75394 6.59893 3.59895C6.75393 3.44396 6.96283 3.35483 7.18197 3.35018C7.40112 3.34553 7.61356 3.42572 7.77499 3.574C7.92327 3.73543 8.00346 3.9479 7.99881 4.16704C7.99416 4.38618 7.90505 4.59506 7.75006 4.75005C7.59506 4.90504 7.38619 4.99417 7.16705 4.99882C6.94791 5.00347 6.73543 4.92328 6.574 4.775ZM6.68701 7.375C6.68721 7.54197 6.63787 7.70525 6.54525 7.84417C6.45263 7.9831 6.32089 8.09144 6.16668 8.15547C6.01248 8.2195 5.84274 8.23636 5.67895 8.2039C5.51517 8.17145 5.36468 8.09115 5.24655 7.97315C5.12841 7.85516 5.04793 7.70477 5.01529 7.54102C4.98264 7.37728 4.99929 7.20753 5.06314 7.05325C5.12699 6.89897 5.23517 6.76709 5.37399 6.67431C5.51281 6.58153 5.67601 6.532 5.84298 6.532C5.95377 6.53187 6.06353 6.55358 6.16592 6.59588C6.26831 6.63819 6.36134 6.70027 6.43972 6.77856C6.51811 6.85685 6.58031 6.94982 6.62274 7.05217C6.66517 7.15451 6.68701 7.26421 6.68701 7.375Z" fill="#FCE883"/>
</svg>
