<svg width="21" height="15" fill="none" xmlns="http://www.w3.org/2000/svg"><path d="M2 0h17a2 2 0 0 1 2 2v11a2 2 0 0 1-2 2H2a2 2 0 0 1-2-2V2a2 2 0 0 1 2-2z" fill="#43458B"/><path d="M14.906 8.219a.844.844 0 1 1 0-1.688.844.844 0 0 1 0 1.688zm-1.895-3.444a.85.85 0 1 1 1.18-1.222.85.85 0 0 1-1.18 1.222zm1.165 5.2a.851.851 0 1 1-1.152 1.253.851.851 0 0 1 1.152-1.253zm-3.801 2.775a.844.844 0 1 1 0-1.689.844.844 0 0 1 0 1.689zm0-9.063a.844.844 0 1 1-.002-1.688.844.844 0 0 1 .002 1.688zM6.61 11.176a.849.849 0 1 1 1.18-1.221.849.849 0 0 1-1.18 1.221zm-.036-6.401a.85.85 0 0 1 1.201-1.201.85.85 0 0 1-1.201 1.201zm.113 2.6a.844.844 0 1 1-1.688.002.844.844 0 0 1 1.688-.002z" fill="#FCE883"/></svg>