<svg width="21" height="15" viewBox="0 0 21 15" fill="none" xmlns="http://www.w3.org/2000/svg">
<path d="M0 7V13.002C0.00105383 13.5311 0.211475 14.0382 0.585297 14.4126C0.959118 14.787 1.46594 14.9982 1.995 15H19.005C19.2674 15.0005 19.5273 14.9492 19.7698 14.8489C20.0123 14.7487 20.2325 14.6015 20.4179 14.4158C20.6033 14.2301 20.7502 14.0096 20.8501 13.767C20.95 13.5244 21.0009 13.2644 21 13.002V7H0Z" fill="#F6F9FC"/>
<path d="M0.5 7.5V13.002C0.501052 13.3985 0.658789 13.7784 0.938843 14.059C1.2189 14.3396 1.59855 14.4982 1.995 14.5H19.005C19.2017 14.5005 19.3966 14.4621 19.5784 14.387C19.7602 14.3119 19.9254 14.2015 20.0644 14.0622C20.2033 13.923 20.3134 13.7576 20.3882 13.5757C20.4629 13.3937 20.5009 13.1987 20.5 13.002V7.5H0.5Z" stroke="#EAEEF3"/>
<path d="M1.99501 2.28624e-07C1.73262 -0.000528545 1.47272 0.0508112 1.23024 0.15107C0.987758 0.251328 0.767502 0.39853 0.582105 0.584206C0.396707 0.769882 0.249839 0.990373 0.149945 1.233C0.050051 1.47563 -0.000910727 1.73561 1.2318e-05 1.998V8H21V1.998C20.999 1.46894 20.7885 0.961809 20.4147 0.587425C20.0409 0.213042 19.5341 0.00184904 19.005 2.28624e-07H1.99501Z" fill="#E25950"/>
</svg>
