<svg width="21" height="15" fill="none" xmlns="http://www.w3.org/2000/svg"><path d="M2 0h17a2 2 0 0 1 2 2v11a2 2 0 0 1-2 2H2a2 2 0 0 1-2-2V2a2 2 0 0 1 2-2z" fill="#F6F9FC"/><path d="M1.995 0h17.01A2 2 0 0 1 21 1.992v11.016A1.994 1.994 0 0 1 19.005 15H1.995A2 2 0 0 1 0 13.008V1.992A1.994 1.994 0 0 1 1.995 0zm0 1A.997.997 0 0 0 1 1.998v11.004a1 1 0 0 0 .995.998h17.01a.996.996 0 0 0 .995-.998V1.998A1 1 0 0 0 19.005 1H1.995z" fill="#DFE5EB"/><path d="M7 7.5A3.5 3.5 0 1 1 13.663 9H7.337A3.486 3.486 0 0 1 7 7.5z" fill="#E25950"/><path d="M14 3.207V3h1.207L16.5 4.793V5h-1.207L14 3.207zM4.5 4.793L5.793 3H7v.207L5.707 5H4.5v-.207zm9.5 7L15.293 10H16.5v.207L15.207 12H14v-.207zm-9.5-1.586V10h1.207L7 11.793V12H5.793L4.5 10.207z" fill="#000" fill-opacity=".9"/><path d="M12.175 6.736a1.733 1.733 0 0 1 1.773 1.37 3.501 3.501 0 0 1-3.378 2.893 3.667 3.667 0 0 1-3.163-1.86A3.485 3.485 0 0 1 7 7.53 3.28 3.28 0 0 1 7.392 6c.002.047.004.098.004.154 0 .674-.003 2.084 1.692 2.084 1.695 0 1.646-1.502 3.087-1.502z" fill="#43458B"/></svg>