<svg width="21" height="15" viewBox="0 0 21 15" fill="none" xmlns="http://www.w3.org/2000/svg">
<path d="M1 0.889999H20V7.244H1V0.889999Z" fill="white"/>
<path d="M0.500001 7.50001H20.5V1.99801C20.499 1.60155 20.3412 1.2216 20.0611 0.940984C19.7811 0.660369 19.4015 0.501852 19.005 0.500005H1.995C1.79827 0.499475 1.60339 0.537881 1.42157 0.613012C1.23975 0.688143 1.07461 0.798518 0.93564 0.937765C0.796671 1.07701 0.68663 1.24239 0.611863 1.42435C0.537097 1.60632 0.499077 1.80128 0.500001 1.99801V7.50001Z" stroke="#DFE5EB"/>
<path d="M0 7V13.002C0.00105383 13.5311 0.211491 14.0382 0.585312 14.4126C0.959133 14.787 1.46594 14.9982 1.995 15H19.005C19.2674 15.0005 19.5273 14.9492 19.7698 14.8489C20.0123 14.7487 20.2325 14.6015 20.4179 14.4158C20.6033 14.2301 20.7502 14.0096 20.8501 13.767C20.95 13.5244 21.0009 13.2644 21 13.002V7H0Z" fill="#E25950"/>
</svg>
