<svg width="21" height="15" viewBox="0 0 21 15" fill="none" xmlns="http://www.w3.org/2000/svg">
<path d="M8 15H2C1.46957 15 0.960858 14.7893 0.585785 14.4142C0.210712 14.0391 0 13.5304 0 13V2C0 1.46957 0.210712 0.960858 0.585785 0.585785C0.960858 0.210712 1.46957 0 2 0H8V15Z" fill="#24B47E"/>
<path d="M19 15H7V0H19C19.5304 0 20.0391 0.210712 20.4142 0.585785C20.7893 0.960858 21 1.46957 21 2V13C21 13.5304 20.7893 14.0391 20.4142 14.4142C20.0391 14.7893 19.5304 15 19 15Z" fill="#E25950"/>
<path d="M10.003 7.5C10.0029 6.56356 9.63077 5.66552 8.96854 5.00343C8.30631 4.34134 7.40818 3.96943 6.47174 3.9695C5.5353 3.96956 4.63726 4.34162 3.97513 5.0038C3.31299 5.66598 2.94101 6.56407 2.94101 7.5005C2.94101 8.43694 3.31299 9.33502 3.97513 9.99721C4.63726 10.6594 5.5353 11.0314 6.47174 11.0315C7.40818 11.0316 8.30631 10.6596 8.96854 9.99756C9.63077 9.33547 10.0029 8.43744 10.003 7.50101V7.5Z" fill="#FCD669"/>
<path d="M6.42499 5.001C6.91921 4.98619 7.40674 5.11826 7.8259 5.38052C8.24506 5.64277 8.57702 6.02343 8.77985 6.47436C8.98267 6.92529 9.04724 7.42624 8.96536 7.91386C8.88349 8.40147 8.65886 8.85386 8.31989 9.21381C7.98091 9.57377 7.5428 9.82512 7.06097 9.93609C6.57915 10.0471 6.07523 10.0127 5.61295 9.83726C5.15067 9.66184 4.75079 9.35328 4.46387 8.9506C4.17695 8.54792 4.01586 8.06921 4.00101 7.57499L4 7.49999C3.99997 6.84992 4.25316 6.22539 4.70587 5.75886C5.15859 5.29233 5.7752 5.0205 6.42499 5.001Z" fill="#E25950"/>
<path d="M5.5 6H7.5V8.03101C7.5 8.29622 7.39463 8.55058 7.20709 8.73811C7.01956 8.92565 6.76522 9.03101 6.5 9.03101C6.23478 9.03101 5.98044 8.92565 5.79291 8.73811C5.60537 8.55058 5.5 8.29622 5.5 8.03101V6Z" fill="#F6F9FC"/>
</svg>
