<svg width="21" height="15" viewBox="0 0 21 15" fill="none" xmlns="http://www.w3.org/2000/svg">
<path d="M1.995 0C1.46569 0.00105907 0.958434 0.211994 0.584442 0.586548C0.21045 0.961102 0.000263724 1.4687 0 1.998V6H21V1.998C20.9989 1.46894 20.7885 0.961801 20.4147 0.587418C20.0409 0.213034 19.5341 0.00184881 19.005 0H1.995Z" fill="#F6F9FC"/>
<path d="M0.5 5.5H20.5V1.998C20.4989 1.60155 20.3412 1.22159 20.0612 0.940979C19.7811 0.660363 19.4015 0.501846 19.005 0.5H1.995C1.5983 0.501058 1.21821 0.659323 0.937988 0.940109C0.657764 1.2209 0.500263 1.60131 0.5 1.998V5.5Z" stroke="#DFE5EB"/>
<path d="M0 5H21V10H0V5Z" fill="#43458B"/>
<path d="M0 10V12.995C0.000256215 13.5249 0.210221 14.0333 0.584015 14.4089C0.957809 14.7846 1.46505 14.9971 1.995 15H19.005C19.2678 14.9997 19.5279 14.9476 19.7704 14.8466C20.013 14.7457 20.2333 14.5978 20.4186 14.4116C20.604 14.2253 20.7507 14.0043 20.8505 13.7612C20.9503 13.5181 21.0011 13.2577 21 12.995V10H0Z" fill="#E25950"/>
</svg>
