<svg width="21" height="15" viewBox="0 0 21 15" fill="none" xmlns="http://www.w3.org/2000/svg">
<path d="M19 0H2C0.89543 0 0 0.89543 0 2V13C0 14.1046 0.89543 15 2 15H19C20.1046 15 21 14.1046 21 13V2C21 0.89543 20.1046 0 19 0Z" fill="#E25950"/>
<path d="M9.43101 3.09599C8.46404 3.3148 7.59922 3.85358 6.97654 4.62507C6.35387 5.39656 6.00979 6.35562 6.00001 7.34699C6.01386 8.45553 6.44322 9.51851 7.20317 10.3257C7.96312 11.1328 8.99832 11.6254 10.104 11.706C9.45048 11.9544 8.74803 12.0472 8.05241 11.9769C7.35679 11.9065 6.68714 11.6751 6.09654 11.3009C5.50594 10.9267 5.01065 10.4201 4.64998 9.8211C4.2893 9.22215 4.07314 8.54739 4.01866 7.85035C3.96417 7.15331 4.07287 6.45316 4.3361 5.80544C4.59934 5.15773 5.00986 4.58025 5.53514 4.11883C6.06042 3.65741 6.68601 3.32474 7.36226 3.1472C8.0385 2.96965 8.74681 2.95211 9.43101 3.09599Z" fill="white"/>
<path d="M11.5 9C12.3284 9 13 8.32843 13 7.5C13 6.67157 12.3284 6 11.5 6C10.6716 6 10 6.67157 10 7.5C10 8.32843 10.6716 9 11.5 9Z" fill="white"/>
</svg>
