<svg width="21" height="15" viewBox="0 0 21 15" fill="none" xmlns="http://www.w3.org/2000/svg">
<path d="M1.99501 4.04273e-06C1.73262 -0.000524731 1.47272 0.0508227 1.23024 0.151081C0.987758 0.25134 0.767502 0.398526 0.582105 0.584202C0.396707 0.769878 0.249839 0.990376 0.149945 1.23301C0.050051 1.47564 -0.000910727 1.73562 1.2318e-05 1.99801V8H21V1.99801C20.999 1.46895 20.7885 0.961805 20.4147 0.587422C20.0409 0.213038 19.5341 0.00185286 19.005 4.04273e-06H1.99501Z" fill="#45B2E8"/>
<path d="M2.27146e-10 8V12.994C-7.97006e-06 13.5241 0.209826 14.0327 0.583649 14.4086C0.957471 14.7845 1.46488 14.9971 1.995 15H19.005C19.268 15.0003 19.5284 14.9485 19.7713 14.8476C20.0142 14.7468 20.2347 14.5989 20.4202 14.4124C20.6056 14.2259 20.7524 14.0046 20.8519 13.7611C20.9514 13.5177 21.0017 13.257 21 12.994V8H2.27146e-10Z" fill="#FCD669"/>
</svg>
